<svg width="80" height="80" viewBox="0 0 80 80" fill="none" xmlns="http://www.w3.org/2000/svg">
<path fill-rule="evenodd" clip-rule="evenodd" d="M40.0007 7.5C22.0515 7.5 7.50073 22.0507 7.50073 40C7.50073 57.9493 22.0515 72.5 40.0007 72.5C57.95 72.5 72.5007 57.9493 72.5007 40C72.5007 22.0507 57.95 7.5 40.0007 7.5ZM35.0006 37.5C35.0006 36.1193 36.1199 35 37.5006 35H40.0006C41.3813 35 42.5006 36.1193 42.5006 37.5V52.5C43.8813 52.5 45.0006 53.6193 45.0006 55C45.0006 56.3807 43.8813 57.5 42.5006 57.5H40.0006C38.6199 57.5 37.5006 56.3807 37.5006 55V40C36.1199 40 35.0006 38.8807 35.0006 37.5ZM43.1258 26.25C43.1258 28.3211 41.4468 30 39.3758 30C37.3047 30 35.6258 28.3211 35.6258 26.25C35.6258 24.1789 37.3047 22.5 39.3758 22.5C41.4468 22.5 43.1258 24.1789 43.1258 26.25Z" fill="#ffffff"/>
</svg>
